<?xml version="1.0" encoding="utf-8"?>
<!-- Generator: Adobe Illustrator 16.0.0, SVG Export Plug-In . SVG Version: 6.00 Build 0)  -->
<!DOCTYPE svg PUBLIC "-//W3C//DTD SVG 1.1//EN" "http://www.w3.org/Graphics/SVG/1.1/DTD/svg11.dtd">
<svg version="1.1" id="Layer_1" xmlns="http://www.w3.org/2000/svg" xmlns:xlink="http://www.w3.org/1999/xlink" x="0px" y="0px"
	 width="700px" height="700px" viewBox="-65.176 -117.182 700 700" enable-background="new -65.176 -117.182 700 700"
	 xml:space="preserve">
<path fill="#FFFFFF" d="M504.869,113.873H415.66c-22.921,0-23.766-21.375-23.789-23.789V78.189
	c0-14.963-16.534-35.684-47.578-35.684H225.716c-34.911,0-47.578,21.339-47.578,35.684v11.823
	c-0.012,0.976-0.571,23.86-24.158,23.86H64.771c-16.402,0-29.736,13.346-29.736,29.736v214.102
	c0,16.391,13.334,29.736,29.736,29.736h71.367c3.283,0,5.947-2.664,5.947-5.947s-2.664-5.947-5.947-5.947H64.771
	c-9.837,0-17.842-8.006-17.842-17.842V209.03h95.156c-7.66,18.317-11.895,38.407-11.895,59.472
	c0,85.26,69.369,154.629,154.628,154.629c85.261,0,154.63-69.369,154.63-154.629c0-21.065-4.271-41.155-11.931-59.472h95.192
	v148.681c0,9.836-8.005,17.842-17.842,17.842h-83.262c-3.283,0-5.947,2.664-5.947,5.947s2.664,5.947,5.947,5.947h83.262
	c16.402,0,29.736-13.346,29.736-29.736V143.609C534.605,127.219,521.271,113.873,504.869,113.873z M284.819,411.236
	c-78.706,0-142.734-64.027-142.734-142.734c0-78.706,64.028-142.734,142.734-142.734c78.707,0,142.735,64.028,142.735,142.734
	C427.555,347.209,363.526,411.236,284.819,411.236z M424.581,197.135c-0.881,0-1.701,0.214-2.45,0.559
	c-25.74-49.708-77.576-83.821-137.312-83.821c-59.734,0-111.57,34.113-137.31,83.821c-0.749-0.345-1.57-0.559-2.45-0.559h-98.13
	v-53.526c0-9.836,8.005-17.842,17.842-17.842h89.209c28.167,0,35.91-23.29,36.053-35.684V78.189c0-9.563,9.503-23.789,35.684-23.789
	h118.577c24.907,0,35.684,15.749,35.684,23.789v11.895c0,12.347,7.458,35.684,35.684,35.684h89.209
	c9.837,0,17.842,8.005,17.842,17.842v53.526H424.581z M148.033,101.979c3.283,0,5.947-2.664,5.947-5.947V84.137
	c0-9.837-8.005-17.842-17.842-17.842H88.56c-9.836,0-17.842,8.005-17.842,17.842v11.895c0,3.283,2.665,5.947,5.947,5.947
	c3.283,0,5.947-2.664,5.947-5.947V84.137c0-3.283,2.676-5.947,5.947-5.947h47.578c3.271,0,5.947,2.665,5.947,5.947v11.895
	C142.085,99.314,144.75,101.979,148.033,101.979z M284.819,161.451c-59.032,0-107.05,48.03-107.05,107.051
	c0,59.021,48.018,107.051,107.05,107.051c59.033,0,107.052-48.029,107.052-107.051C391.871,209.481,343.853,161.451,284.819,161.451
	z M284.819,363.658c-52.466,0-95.155-42.689-95.155-95.156s42.689-95.156,95.155-95.156c52.468,0,95.157,42.689,95.157,95.156
	S337.287,363.658,284.819,363.658z"/>
</svg>
