<?xml version="1.0" encoding="utf-8"?>
<!-- Generator: Adobe Illustrator 16.0.0, SVG Export Plug-In . SVG Version: 6.00 Build 0)  -->
<!DOCTYPE svg PUBLIC "-//W3C//DTD SVG 1.1//EN" "http://www.w3.org/Graphics/SVG/1.1/DTD/svg11.dtd">
<svg version="1.1" id="svg-source" xmlns="http://www.w3.org/2000/svg" xmlns:xlink="http://www.w3.org/1999/xlink" x="0px" y="0px"
	 width="31.994px" height="32px" viewBox="60.435 82.1 31.994 32" enable-background="new 60.435 82.1 31.994 32"
	 xml:space="preserve">
<g id="candy">
	<g id="Credits">
	</g>
	<g id="Icons">
		<g>
			<path fill="#EA2E49" d="M92.429,92.297l-4.338-2.658l0.352-3.551l-3.561,0.342l-2.646-4.33l-0.564,2.354
				c-0.691,2.892-0.975,4.821-1.041,6.125c-2.709-1.277-5.92-0.384-9.014,2.706c-3.125,3.132-4.023,6.31-2.711,9.024
				c-2.451,0.163-5.955,0.991-6.119,1.03l-2.352,0.561l4.338,2.659l-0.354,3.552l3.561-0.342l2.648,4.331l0.562-2.354
				c0.684-2.859,0.969-4.781,1.041-6.083c0.787,0.378,1.613,0.582,2.48,0.582c2.092,0,4.352-1.151,6.535-3.33
				c3.121-3.133,4.02-6.31,2.711-9.023c2.449-0.164,5.955-0.992,6.119-1.031L92.429,92.297z M69.761,108.849l-0.726-1.189
				l-2.385,0.229l0.236-2.377l-1.203-0.738c1.324-0.25,2.908-0.498,3.986-0.498c0.273,0,0.453,0.018,0.562,0.034
				C70.357,105.005,70.132,106.864,69.761,108.849z M79.833,101.5c-3.068,3.06-5.867,3.622-8.145,1.345
				c-2.805-2.81-0.818-5.981,1.344-8.147c1.795-1.794,3.564-2.742,5.115-2.742c1.09,0,2.076,0.456,3.018,1.389
				c0.004,0.003,0.008,0.009,0.012,0.012c0,0.001,0.002,0.002,0.004,0.003C83.423,95.612,82.97,98.351,79.833,101.5z M83.193,91.925
				c-0.273,0-0.451-0.017-0.561-0.033c-0.127-0.696,0.098-2.556,0.469-4.542l0.729,1.19l2.383-0.229l-0.234,2.378l1.203,0.737
				C85.855,91.677,84.271,91.925,83.193,91.925z"/>
			<path fill="#EA2E49" d="M78.683,94.098c-1.17-0.346-2.52,0.298-4.234,2.012c-1.717,1.722-2.359,3.069-2.018,4.241
				c0.127,0.438,0.525,0.721,0.959,0.721c0.092,0,0.188-0.013,0.279-0.04c0.531-0.154,0.836-0.709,0.682-1.239
				c-0.002-0.006-0.15-0.602,1.514-2.27c1.65-1.648,2.24-1.507,2.262-1.505c0.535,0.156,1.086-0.151,1.238-0.682
				C79.519,94.806,79.214,94.251,78.683,94.098z"/>
		</g>
	</g>
</g>
</svg>
